# xmcd CD database file
#
# Track frame offsets:
#	187
#	18412
#	32997
#
# Disc length: 900 seconds
#
# Revision: 0
# Processed by: cddbd v1.5.1PL0 Copyright (c) Steve Scherf et al.
# Submitted via: CDex 1.51
#
DISCID=1d038203
DTITLE=paris blue - 降っても晴れても
DYEAR=1994
DGENRE=JPop
TTITLE0=パパに会う日
TTITLE1=その手につかまえて
TTITLE2=近くにいるから〜帰れなくてもいいな
EXTD=YEAR: 1994
EXTT0=
EXTT1=
EXTT2=
PLAYORDER=
